<mxfile host="app.diagrams.net" modified="2024-05-08T20:02:56.645Z" agent="Mozilla/5.0 (Windows NT 10.0; Win64; x64) AppleWebKit/537.36 (KHTML, like Gecko) Chrome/124.0.0.0 Safari/537.36" etag="VHJKhjn0-PUivznfXK6E" version="24.3.1" type="github">
  <diagram name="페이지-1" id="US2W9MCRXGlD_yNA-cyF">
    <mxGraphModel dx="1235" dy="614" grid="1" gridSize="10" guides="1" tooltips="1" connect="1" arrows="1" fold="1" page="1" pageScale="1" pageWidth="827" pageHeight="1169" math="0" shadow="0">
      <root>
        <mxCell id="0" />
        <mxCell id="1" parent="0" />
        <mxCell id="d0Bt_to2aWI6gpkpMLxI-1" value="Watch" style="shape=umlFrame;whiteSpace=wrap;html=1;pointerEvents=0;" vertex="1" parent="1">
          <mxGeometry x="260" y="50" width="620" height="670" as="geometry" />
        </mxCell>
        <mxCell id="d0Bt_to2aWI6gpkpMLxI-2" value="심박수 정보 확인" style="ellipse;whiteSpace=wrap;html=1;" vertex="1" parent="1">
          <mxGeometry x="340" y="120" width="140" height="70" as="geometry" />
        </mxCell>
        <mxCell id="d0Bt_to2aWI6gpkpMLxI-3" value="미세먼지 정보 확인" style="ellipse;whiteSpace=wrap;html=1;" vertex="1" parent="1">
          <mxGeometry x="310" y="230" width="140" height="70" as="geometry" />
        </mxCell>
        <mxCell id="d0Bt_to2aWI6gpkpMLxI-8" value="User" style="shape=umlActor;verticalLabelPosition=bottom;verticalAlign=top;html=1;" vertex="1" parent="1">
          <mxGeometry x="140" y="150" width="30" height="60" as="geometry" />
        </mxCell>
        <mxCell id="d0Bt_to2aWI6gpkpMLxI-9" value="시계 정보 송신" style="ellipse;whiteSpace=wrap;html=1;" vertex="1" parent="1">
          <mxGeometry x="580" y="70" width="140" height="70" as="geometry" />
        </mxCell>
        <mxCell id="d0Bt_to2aWI6gpkpMLxI-10" value="시계 위치 알림 실행" style="ellipse;whiteSpace=wrap;html=1;" vertex="1" parent="1">
          <mxGeometry x="580" y="160" width="140" height="70" as="geometry" />
        </mxCell>
        <mxCell id="d0Bt_to2aWI6gpkpMLxI-11" value="이동 경로 정보 송신" style="ellipse;whiteSpace=wrap;html=1;" vertex="1" parent="1">
          <mxGeometry x="580" y="270" width="140" height="70" as="geometry" />
        </mxCell>
        <mxCell id="d0Bt_to2aWI6gpkpMLxI-12" value="시간 동기화 정보 수신" style="ellipse;whiteSpace=wrap;html=1;" vertex="1" parent="1">
          <mxGeometry x="580" y="370" width="140" height="70" as="geometry" />
        </mxCell>
        <mxCell id="d0Bt_to2aWI6gpkpMLxI-13" value="사용자 정보 업로드" style="ellipse;whiteSpace=wrap;html=1;" vertex="1" parent="1">
          <mxGeometry x="580" y="470" width="140" height="70" as="geometry" />
        </mxCell>
        <mxCell id="d0Bt_to2aWI6gpkpMLxI-14" value="자가 업데이트 정보 다운로드" style="ellipse;whiteSpace=wrap;html=1;" vertex="1" parent="1">
          <mxGeometry x="580" y="600" width="240" height="70" as="geometry" />
        </mxCell>
        <mxCell id="d0Bt_to2aWI6gpkpMLxI-15" value="GPS 정보 수신" style="ellipse;whiteSpace=wrap;html=1;" vertex="1" parent="1">
          <mxGeometry x="290" y="500" width="140" height="70" as="geometry" />
        </mxCell>
        <mxCell id="d0Bt_to2aWI6gpkpMLxI-16" value="GPS Satellite" style="shape=umlActor;verticalLabelPosition=bottom;verticalAlign=top;html=1;" vertex="1" parent="1">
          <mxGeometry x="140" y="470" width="30" height="60" as="geometry" />
        </mxCell>
        <mxCell id="d0Bt_to2aWI6gpkpMLxI-21" value="" style="endArrow=none;html=1;rounded=0;" edge="1" parent="1" source="d0Bt_to2aWI6gpkpMLxI-8" target="d0Bt_to2aWI6gpkpMLxI-3">
          <mxGeometry width="50" height="50" relative="1" as="geometry">
            <mxPoint x="155" y="280" as="sourcePoint" />
            <mxPoint x="440" y="280" as="targetPoint" />
          </mxGeometry>
        </mxCell>
        <mxCell id="d0Bt_to2aWI6gpkpMLxI-22" value="" style="endArrow=none;html=1;rounded=0;" edge="1" parent="1" source="d0Bt_to2aWI6gpkpMLxI-8" target="d0Bt_to2aWI6gpkpMLxI-2">
          <mxGeometry width="50" height="50" relative="1" as="geometry">
            <mxPoint x="173" y="226" as="sourcePoint" />
            <mxPoint x="326" y="261" as="targetPoint" />
          </mxGeometry>
        </mxCell>
        <mxCell id="d0Bt_to2aWI6gpkpMLxI-27" value="" style="endArrow=none;html=1;rounded=0;" edge="1" parent="1" source="d0Bt_to2aWI6gpkpMLxI-16" target="d0Bt_to2aWI6gpkpMLxI-15">
          <mxGeometry width="50" height="50" relative="1" as="geometry">
            <mxPoint x="390" y="430" as="sourcePoint" />
            <mxPoint x="440" y="380" as="targetPoint" />
          </mxGeometry>
        </mxCell>
        <mxCell id="d0Bt_to2aWI6gpkpMLxI-28" value="package mobile" style="shape=umlFrame;whiteSpace=wrap;html=1;pointerEvents=0;width=120;height=30;" vertex="1" parent="1">
          <mxGeometry x="1060" y="50" width="500" height="400" as="geometry" />
        </mxCell>
        <mxCell id="d0Bt_to2aWI6gpkpMLxI-29" value="시계 정보를 요청" style="ellipse;whiteSpace=wrap;html=1;" vertex="1" parent="1">
          <mxGeometry x="1230" y="70" width="140" height="70" as="geometry" />
        </mxCell>
        <mxCell id="d0Bt_to2aWI6gpkpMLxI-30" value="시계 정보 리스트를 보여준다." style="ellipse;whiteSpace=wrap;html=1;" vertex="1" parent="1">
          <mxGeometry x="1160" y="200" width="230" height="70" as="geometry" />
        </mxCell>
        <mxCell id="d0Bt_to2aWI6gpkpMLxI-31" value="&amp;lt;&amp;lt;include&amp;gt;&amp;gt;" style="endArrow=open;endSize=12;dashed=1;html=1;rounded=0;" edge="1" parent="1" source="d0Bt_to2aWI6gpkpMLxI-30" target="d0Bt_to2aWI6gpkpMLxI-29">
          <mxGeometry x="-0.2345" y="37" width="160" relative="1" as="geometry">
            <mxPoint x="1030" y="310" as="sourcePoint" />
            <mxPoint x="1190" y="310" as="targetPoint" />
            <mxPoint as="offset" />
          </mxGeometry>
        </mxCell>
      </root>
    </mxGraphModel>
  </diagram>
</mxfile>
